<svg width="64" height="64" viewBox="0 0 64 64"
  xmlns="http://www.w3.org/2000/svg" role="img" aria-labelledby="snoopyLogoTitle snoopyLogoDesc">
  <title id="snoopyLogoTitle">Snoopy Logo</title>
  <desc id="snoopyLogoDesc">Rounded gradient tile with a stylized letter S.</desc>
  <defs>
    <linearGradient id="snoopyBg" x1="8" y1="6" x2="56" y2="58" gradientUnits="userSpaceOnUse">
      <stop offset="0" stop-color="#0B2A4A"/>
      <stop offset="0.52" stop-color="#165DAA"/>
      <stop offset="1" stop-color="#36A7E6"/>
    </linearGradient>
    <linearGradient id="snoopyStroke" x1="20" y1="14" x2="45" y2="50" gradientUnits="userSpaceOnUse">
      <stop offset="0" stop-color="#FFFFFF"/>
      <stop offset="1" stop-color="#D8EEFF"/>
    </linearGradient>
  </defs>

  <rect x="4" y="4" width="56" height="56" rx="16" fill="url(#snoopyBg)"/>

  <path d="M43 18c-2.1-2.2-5.5-3.5-9.7-3.5-6.6 0-11.3 3.4-11.3 8.3 0 5.2 4.9 7.4 10.5 8.4 4.6 0.9 7.3 1.7 7.3 4.8 0 2.5-2.6 4.2-6.8 4.2-3.9 0-7.1-1.4-9.3-3.9" fill="none" stroke="url(#snoopyStroke)" stroke-width="5" stroke-linecap="round" stroke-linejoin="round"/>

  <circle cx="48" cy="16" r="5" fill="#A7E8FF" fill-opacity="0.9"/>
  <path d="M48 9v14M41 16h14" stroke="#FFFFFF" stroke-width="2" stroke-linecap="round"/>
</svg>
